<?xml version="1.0" encoding="utf-8"?>
<!-- Generator: Adobe Illustrator 23.0.1, SVG Export Plug-In . SVG Version: 6.00 Build 0)  -->
<svg version="1.1" id="Слой_1" xmlns="http://www.w3.org/2000/svg" xmlns:xlink="http://www.w3.org/1999/xlink" x="0px" y="0px"
	 viewBox="0 0 100 100" style="enable-background:new 0 0 100 100;" xml:space="preserve">
<style type="text/css">
	.st0{fill-rule:evenodd;clip-rule:evenodd;fill:currentColor;}
	.st1{fill-rule:evenodd;clip-rule:evenodd;}
</style>
<path class="st0" d="M79,74.5c0,0-3,2.5-4.9,3.3c-1.8,0.8-4,2.3-4.9,2.9l2.3,2.3c1,1,3.3,1.4,5.1,1.7c1.1,0.2,2.1,0.3,2.3,0.6
	c0.1,0.1,0.6,0.3,1.2,0.5c2.2,0.8,6.4,2.2,4.9,6c-1.6,3.9-3.9,4.4-4.9,4.2c-1.9-0.3-6.3-1.3-8.1-2.6c-2.3-1.6-4.9-1.3-7.4-1
	c-2.1,0.3-3.2,0.1-3.6,0c-2.2-0.7-6.8-2-8.1-2c-1.3,0-2.5,0.2-2.9,0.3h-1l-1.6,1l-0.6,0.7l-4.2,2.3l-1.6-0.3h-1.3l-4.2-3.6
	c-0.5,0.4-2.5,2.5-3.6,4.6c-1.3,2.6-5.5,3.3-6.5,2c-1-1.3-2.9-4.2,1-5.5c3.1-1,6-2.8,7.1-3.6c-1.3-1.6-4.6-6.2-4.9-9.1
	c-0.3-2.9-0.1-3.1,0-2.9c0.1-0.1,0.2-0.3,0.4-0.6c0.4-0.6,1-1.3,1.2-1.7c0.3-0.5,1.2-0.7,1.6-0.7l4.9-2.9l1-2.3
	c1.2-1.4,3.9-4.5,5.5-5.5c1.6-1,2.2-2.4,2.3-2.9l4.5-5.2c1.2-1.1,4.3-4.1,4.9-4.9c0.5-0.8,2.6-2.5,3.6-3.3l1.3-1.3
	c1-1.6,3.7-5.7,4.2-6.2c0.6-0.7,4.2-3.3,7.1-0.7c2.3,2.1,1.4,4.6,0.6,5.5c-0.8,0.9-3.4,3.6-5.2,5.2c-1.8,1.6-2.9,3.9-3.2,4.9
	l10.4-8.1c1.2-1.3,4.5-4.7,5.5-5.2c1.3-0.7,4.2-2,6.8,1c2.1,2.3,0.6,4.9-0.3,5.9c-1.1,0.8-3.6,2.4-4.9,2.9c-1.3,0.5-2.9,2.2-3.6,2.9
	l-4.5,4.2l7.1-3.3l4.9-3.6c0.9-0.9,3.5-2.7,4.5-2.9c0.2,0,0.4-0.1,0.6-0.2c1.4-0.4,3.4-1.1,4.7,1.5c1.5,2.9,0.8,5.2-1.4,6.5
	c-0.9,0.5-2.1,1-3.3,1.5c-1.9,0.8-3.8,1.6-4.4,2.4c-0.8,1-2.9,2.2-3.9,2.6L79,63.5l-3.9,2.6l9.4-3.6c0.4-0.1,1.4-0.5,1.9-1
	c0.6-0.7,2.6-1.6,3.6-2c0.1,0,0.2-0.1,0.4-0.1c0.9-0.3,2.1-0.8,3.8-0.2c1.9,0.7,2.3,1,2.9,2.9c0.5,1.6-0.6,3.9-1.3,4.9
	c-0.6,0.4-2.2,1.4-3.2,1.6c-1,0.3-1.5,0.3-1.6,0.3l-4.2,2l-2.9,1.3c0,0.2-3.2,1.3-3.2,1.3L79,74.5z M34,89.8
	c-0.9,1.4-2.8,4.4-3.6,5.2c-1,1-2.9,2-3.9,1c-1-1-0.6-2.3,0.6-2.9C28.2,92.5,32.1,90.7,34,89.8z"/>
<path class="st1" d="M19.8,25c0,0,3-2.5,4.9-3.3c1.8-0.8,4-2.3,4.9-2.9l-2.3-2.3c-1-1-3.3-1.4-5.1-1.7c-1.1-0.2-2.1-0.3-2.3-0.6
	c-0.1-0.1-0.6-0.3-1.2-0.5c-2.2-0.8-6.4-2.2-4.9-6c1.6-3.9,3.9-4.4,4.9-4.2c1.9,0.3,6.3,1.3,8.1,2.6c2.3,1.6,4.9,1.3,7.4,1
	c2.1-0.3,3.2-0.1,3.6,0c2.2,0.7,6.8,2,8.1,2c1.3,0,2.5-0.2,2.9-0.3h1l1.6-1l0.6-0.7L56,4.8l1.6,0.3h1.3l4.2,3.6
	c0.5-0.4,2.5-2.5,3.6-4.6c1.3-2.6,5.5-3.3,6.5-2c1,1.3,2.9,4.2-1,5.5c-3.1,1-6,2.8-7.1,3.6c1.3,1.6,4.6,6.2,4.9,9.1
	c0.3,2.9,0.1,3.1,0,2.9c-0.1,0.1-0.2,0.3-0.4,0.6c-0.4,0.6-1,1.3-1.2,1.7c-0.3,0.5-1.2,0.7-1.6,0.7l-4.9,2.9l-1,2.3
	c-1.2,1.4-3.9,4.5-5.5,5.5c-1.6,1-2.2,2.4-2.3,2.9l-4.5,5.2c-1.2,1.1-4.3,4.1-4.9,4.9c-0.5,0.8-2.6,2.5-3.6,3.3l-1.3,1.3
	c-1,1.6-3.7,5.7-4.2,6.2c-0.6,0.7-4.2,3.3-7.1,0.7c-2.3-2.1-1.4-4.6-0.6-5.5c0.8-0.9,3.4-3.6,5.2-5.2c1.8-1.6,2.9-3.9,3.2-4.9
	l-10.4,8.1c-1.2,1.3-4.5,4.7-5.5,5.2c-1.3,0.7-4.2,2-6.8-1c-2.1-2.3-0.6-4.9,0.3-5.9c1.1-0.8,3.6-2.4,4.9-2.9
	c1.3-0.5,2.9-2.2,3.6-2.9l4.5-4.2l-7.1,3.3l-4.9,3.6c-0.9,0.9-3.5,2.7-4.5,2.9c-0.2,0-0.4,0.1-0.6,0.2c-1.4,0.4-3.4,1.1-4.7-1.5
	c-1.5-2.9-0.8-5.2,1.4-6.5c0.9-0.5,2.1-1,3.3-1.5c1.9-0.8,3.8-1.6,4.4-2.4c0.8-1,2.9-2.2,3.9-2.6l2.6-1.6l3.9-2.6L14.3,37
	c-0.4,0.1-1.4,0.5-1.9,1c-0.6,0.7-2.6,1.6-3.6,2c-0.1,0-0.2,0.1-0.4,0.1c-0.9,0.3-2.1,0.8-3.8,0.2c-1.9-0.7-2.3-1-2.9-2.9
	c-0.5-1.6,0.6-3.9,1.3-4.9c0.6-0.4,2.2-1.4,3.2-1.6c1-0.3,1.5-0.3,1.6-0.3l4.2-2l2.9-1.3c0-0.2,3.2-1.3,3.2-1.3L19.8,25z M64.7,9.7
	c0.9-1.4,2.8-4.4,3.6-5.2c1-1,2.9-2,3.9-1c1,1,0.6,2.3-0.6,2.9C70.5,6.9,66.6,8.8,64.7,9.7z"/>
</svg>
