<?xml version="1.0" encoding="utf-8"?>
<!-- Generator: Adobe Illustrator 23.0.1, SVG Export Plug-In . SVG Version: 6.00 Build 0)  -->
<svg version="1.1" id="Слой_1" xmlns="http://www.w3.org/2000/svg" xmlns:xlink="http://www.w3.org/1999/xlink" x="0px" y="0px"
	 viewBox="0 0 100 100" style="enable-background:new 0 0 100 100;" xml:space="preserve">
<style type="text/css">
	.st0{fill-rule:evenodd;clip-rule:evenodd;fill:currentColor;}
	.st1{fill-rule:evenodd;clip-rule:evenodd;}
</style>
<path class="st0" d="M66.8,60.1c0.1,0.1,0.2,0.2,0.4,0.4c-0.3,0-0.5,0.1-0.7,0.1c-0.3,0.1-0.6,0.2-1.4,0.5c-1,0.4-1.3,0.7-1.8,1
	c-0.2,0.1-0.4,0.3-0.6,0.5c-0.1,0.1-0.3,0.2-0.4,0.3c-1.1,0.8-1.9,2.5-2.7,4.1c-0.2,0.3-0.3,0.6-0.5,0.9c-0.3,0.6-0.7,1.6-1,2.7
	c-0.5,1.5-1.1,3.2-1.7,4.1l-0.8,3L54,84l-0.7,2.2l0.3,8.4l0.6,0.9l0.4,2.9l4.8-0.5l-0.1-2.6l0.6-0.3l2.8-15.6
	c0.1-0.1,0.4-0.1,0.6,0.6c0.1,0.4,0.1,0.9,0.1,1.6c0,0.7,0,1.4,0.1,1.8l-0.6,2.5c-0.4,0.7-0.6,2.5-0.8,3.9c-0.1,0.5-0.1,1-0.2,1.3
	l0.3,1.3l-0.3,3l0.2,1.1l1.1,0.7l1,0.3c0,0,7.6,0.9,11.9,0.9s10.5-0.9,10.5-0.9l1-0.3l0.7-0.9c0.5-0.2,0.8-1.7,0.6-1.9
	C89,94.4,89,93.1,89,91.9c0-0.7,0-1.3-0.1-1.8c-0.2-0.6-0.6-2-0.6-2.5c0,0,0-0.1,0-0.2c0-0.8,0.1-3.2-0.8-4.4l0.8-5.1l1.2,1.4
	l0.2,2.4l0.7,1.7l-0.4,1.7l0.9,9.4l1,0.6l-0.4,1.5c0,0,1.2,1.1,2.1,1.5c1.2,0.5,3.3,0.4,3.3,0.4l0.5-2.2l0.6-1.9
	c0-0.1,0-0.6,0.1-1.4c0.2-2.6,0.7-7.9,0.2-8.6c-0.3-0.5-0.4-1.3-0.4-2.1c0-0.4-0.1-0.9-0.1-1.2l0-1.6c-0.1-0.6-0.5-2-1.3-2.8
	c-0.6-0.6-0.9-1.3-1.3-2c-0.2-0.4-0.4-0.8-0.6-1.1c-0.2-0.3-0.5-1.4-0.8-2.7c-0.4-1.5-0.8-3.4-1.3-4.4c-0.3-0.6-1.3-2.4-2.6-3.4
	c-1.3-1-4.5-3-6.3-3.7c0.1-0.3,0.3-0.5,0.5-0.7c0.3-0.4,0.6-0.8,0.5-1.3c-0.6-2.2-4.1-4.3-9-4.5c-4-0.2-8.5,2.4-9.6,4.7
	C65.3,58.6,66,59.4,66.8,60.1z M75.6,64.7c0,0-7.4-4.6-4-6.9c0.8-0.5,1.5-0.3,2.2,0c0.5,0.2,1,0.3,1.6,0.3c0.6,0,1.3-0.3,2-0.5
	c1.1-0.4,2.2-0.8,2.2,0.2C79.6,59.9,75.6,64.7,75.6,64.7z"/>
<path class="st1" d="M31.2,1.4c2.4,0.4,6.8,1,8,2.4c0.3,0.4,0.6,1.1,0.7,1.7C40,6.1,39.8,7.7,40.2,8c0.7,0.4,1.5,0.8,2.2,1.2
	c1.9,0.9,3.8,1.9,5.7,2.8c0.6,0.3,1.3,0.6,1.9,0.9c0.6,0.6,1.1,1.2,1.7,1.8c1.4,1.7,2.5,4.2,2.8,7c0.2,1.7-0.1,3.3-0.2,4.8
	c0.1,1.6,0.2,3.2,0.4,4.8c0.4,2.9,1.3,5.3,1.7,8.1c0.5,3.5,0.2,7.4-0.2,10.8c-0.1,1.2-0.1,2.5-0.2,3.7c-0.2,1.5-0.4,2.9-0.2,4.3
	c0.1,0.9,0,1.8-0.1,2.6c0,0,0,0,0,0c0,0,0,0,0,0c0,0,0,0,0,0.1c-0.2,0.5-0.4,0.9-0.5,1.4c0,0.5-0.1,1-0.1,1.5
	c-0.1,0.1-0.2,0.2-0.2,0.3c-0.7,0.3-4.2-0.1-4.4-0.5c0-0.5-0.1-1.1-0.1-1.6c-0.1-0.7-0.4-1.1-0.6-1.6c-0.1-0.5-0.1-1-0.2-1.5
	c-0.1-1,0.3-1.8,0.1-2.8c-0.2-1.2-0.3-2.4-0.5-3.6c0-0.4,0-0.8-0.1-1.3c-0.5-2.2-1.1-4.4-1.6-6.6c-0.2-1.4-0.2-2.9-0.4-4.4
	c-0.2-1.3-0.5-2.3-0.8-3.4c0-0.4-0.1-0.8-0.1-1.1c-0.1,0-0.1,0-0.2,0c-0.1,1-0.2,2.1-0.3,3.1c0.2,2.1,0.4,4.1,0.7,6.2
	c0,1.1,0,2.2,0,3.3c-0.1,0.7-0.2,1.3-0.3,2c0.3,1.8,0.5,3.7,0.8,5.5c0.1,1,0,2.1,0.2,3.2c0.2,1.6,0.6,3,0.8,4.4
	c0.1,0.7,0.1,1.5,0.2,2.2c0,0.3,0.2,0.5,0.1,0.8c-0.4,1-5.5,1.7-6.9,2c-2.9,0.5-5.8,1-8.8,1.4c-2.1,0.2-4.1,0.3-6.2,0.5
	c-3.1,0.4-8.2,0.5-10.1-0.9c-0.7-0.5-1.4-1.2-1.5-2.1c-0.3-1.5-0.1-3.4,0.2-4.8c0.1-0.4,0.3-0.8,0.4-1.2c0-0.7-0.1-1.3-0.1-2
	c-0.2-1.9-0.3-4-0.1-5.9c0.2-2.1,0.2-4.1,0.4-6.1c0.1-1.1,0.2-2.2,0.3-3.3c-0.1-1.2-0.3-2.4-0.4-3.8c-0.2-1.5,0.1-9.5-0.4-9.9
	c-0.1,0-0.1,0-0.2,0c0,0,0,0.1,0,0.1c-0.8,2.7-1.2,5.7-1.7,8.6c-0.2,0.9-0.6,1.8-0.7,2.8c0,0.8,0,1.6-0.1,2.4
	c-0.3,2-0.5,3.9-0.8,5.9c0,0.9,0,1.7,0,2.6c-0.1,0.5-0.3,1-0.4,1.5c0,0.7,0,1.4,0,2.1c-0.1,0.7-0.4,1.2-0.5,1.8c0,0.5,0,1.1,0.1,1.6
	c-0.1,0.8-0.4,1.8-0.4,2.5c-0.1,0.7,0.3,1.4,0.1,2.2c-0.1,0.4-0.6,0.5-0.6,0.9c-0.1,0.3,0.4,0.4,0.5,0.6c0,0,0,0.1,0,0.1
	c0.1,0.5-0.1,0.8,0,1.3c0.3,0.7,0.6,1.5,0.9,2.2c-0.1,0.3-0.5,0.5-0.7,0.6c-0.5,0.2-6.3,1.3-6.7,1c-0.4-0.3,0-1.6-0.2-2.1
	c-0.2-0.8-0.8-1.2-1-2c-0.1-0.6,0.4-0.8,0.3-1.2c-0.2-0.3-0.4-0.7-0.5-1C2,63,1.8,61.6,1.6,60.1c-0.4-3.5,0.1-7.2-0.3-10.6
	c-0.5-4.4-0.6-9.3-0.1-13.8c0.2-1.9-0.1-3.9,0.2-5.7c0.5-3.1,1.3-6,2-9c0.9-3.8,1.5-7.4,4-9.6c1.1-1,2.4-1.7,3.8-2.3
	c0.3-0.2,0.6-0.3,0.9-0.5c1.7-0.3,3.5-0.7,5.2-1c1.2-0.4,2.4-0.9,3.6-1.3c0.9-0.4,1.8-0.9,2.6-1.3c0.3-0.7,0.6-1.5,0.9-2.2
	c0.5-1.1,2.4-1.7,4-1.6C29.4,1.2,30.3,1.3,31.2,1.4z"/>
</svg>
