<?xml version="1.0" encoding="utf-8"?>
<!-- Generator: Adobe Illustrator 23.0.1, SVG Export Plug-In . SVG Version: 6.00 Build 0)  -->
<svg version="1.1" id="Слой_1" xmlns="http://www.w3.org/2000/svg" xmlns:xlink="http://www.w3.org/1999/xlink" x="0px" y="0px"
	 viewBox="0 0 100 100" style="enable-background:new 0 0 100 100;" xml:space="preserve">
<style type="text/css">
	.st0{fill-rule:evenodd;clip-rule:evenodd;}
	.st1{fill:currentColor;}
</style>
<path class="st0" d="M6,5.6c0.7,0,1.2,0.3,1.7,0.3c0.2,0,0.3-0.3,0.7-0.2c0.8,0.1,1.2,1.3,1.4,2C9.8,8,9.8,8.6,10.2,8.6
	c1.1-0.2,2.1-0.7,3.4-0.8C17,7.3,33.3,7.5,34.3,9c0.5,0.8-1.6,14.7-1.9,16.6C31,33.8,30.7,42.8,30,51.5c0.1,0.2,0.2,0.5,0.3,0.7
	c-0.4,6.3,0,12.6,1.7,17.1c0.7,2,2.7,3.7,4.2,4.9c3.3,2.8,6.7,6.1,11.7,7.1c1.2,0.2,2.6,0.5,4.1,0.4c1.8-0.2,4.8-0.6,6,0.3
	c1,0.7,1.1,1.6,1.7,2.6c0.2,0.2,0.4,0.3,0.6,0.5c0.2,0.5,0.3,0.9,0.5,1.4c0.1,0.4-0.2,0.6-0.2,0.9c0.2,0.2,0.3,0.4,0.5,0.5
	c0.4,1.2-0.4,2.4-1,2.8c-2,1.3-4.4,1.7-6.9,2.5c-0.4,0.2-0.8,0.4-1.3,0.6c-1.1,0.3-2.2,0.6-3.3,0.8c-2.1,0.5-4.5,1.4-6.7,1.7
	c-0.2,0-0.4-0.1-0.6-0.1c-0.3,0.1-0.6,0.3-0.9,0.4c-1,0.2-1.9-0.4-2.2-0.3c-0.6,0.1-1,0.6-1.7,0.5c-3.1-0.3-5.7-0.3-8.4-1.1
	c-0.7-0.2-1.1-2.2-2-2c-0.2,0.2-0.5,0.3-0.7,0.5c-1.8,0.2-3.6,0.4-5.3,0.6c-0.8,0.2-1.5,0.8-2.3,0.7c-0.8,0-1.5-0.1-2.3-0.1
	c-0.5-0.1-0.5-0.9-1.3-0.8c-0.5,0.1-0.6,0.6-1.1,0.7c-1.4,0.2-6.8-0.8-7.2-1.5c0,0,0-0.1-0.1-0.1c-0.6-1.4-0.2-4.1,0-5.7
	c0-0.3-0.1-0.5-0.1-0.8c0.1-0.4,0.1-0.7,0.2-1.1c-0.2-1.3-1-2.4-1-3.8c0,0,0-0.1,0-0.1c0.1-0.7,0.8-0.6,0.9-1.2
	c0.1-0.9,0.2-1.8,0.4-2.7c0.3-1.7,0.7-3.1,0.9-5c0.3-2.6-0.4-4.9-0.8-7c0-0.3,0-0.7,0-1c-0.7-3.9-1.7-7.9-2.5-12
	c-0.4-2.8-0.8-5.5-1.2-8.3c-0.1-2.3-0.3-4.7-0.4-7c0-0.8,0-1.7-0.1-2.5c-0.1-0.8-0.3-1.7-0.2-2.8c0.1-1.2,0.7-1.4,0.8-2.9
	c0-1.4,0-2.8,0-4.3c0.1-2.5,0.2-5.1,0.4-7.6c0.2-2,0.4-3.9,0.6-5.7c0-0.5,0-1,0-1.5c0.1-0.7,1.1-1,1.1-1.3C4.7,9.2,4.6,8.9,4.5,8.5
	C4.3,7.1,4.9,5.9,6,5.6z"/>
<path class="st1" d="M54.6,56c-0.6,0.4-1.9,1.2-2.4,1.6l-7.3-2l-1.1-2.9l-1.6,2c-0.8-0.3-2.7-1-3.6-1.6c-0.9-0.5-1.6-1.9-1.8-2.4
	l0.7-4l0.9-3.8l1.1-1.8c0.6-1.7,1.9-5.6,2.2-7.6c0.4-2,1.3-3.8,1.8-4.2l-0.4-0.4v-3.8v-2.2c0-0.9,0.9-1.9,1.3-2l4.4-1.6l1.3-0.4
	c-0.2-0.4-0.6-1.6-0.4-2.4c0.2-0.9,2.6-2.6,4-3.3c0.9,0,1.8-0.6,2.2-0.9c1.4-1.1,2.8-1.5,3.3-1.3c0.4,0.1,1.5,0.1,2-0.2
	c0.7-0.4,2.4,0.2,3.3,1.1c0.9,0.9,1.8,2.7,1.8,3.1v2l0.9,3.1l1.8,5.1c0.1,0.4,0.4,1.6,1.1,2.4c0.7,0.9,1.5,2.1,1.8,2.7l0.7,2.7
	l1.3,2.2l0.9,0.4l2.9,3.3l0.4,1.6l3.8,3.1l0.9,0.4l2.7,2.7l3.3,1.6l3.8,0.7c0.6,0.3,2,1.1,2.9,1.8c0.9,0.7,1.6,1.8,1.6,2.2
	c0.3-0.2,1-0.4,1.3,0.9c0.4,1.2-0.1,3.3-0.4,3.8L97,58.5c0.1-0.1,0.2,0-0.9,1.6c-1.1,1.6-6.4,3.5-9.1,4.2l-2.2-1.8l-0.9,2l-4.7,0.9
	l-1.6-1.6l-1.3,1.6l-4.4-0.9l-0.9-1.3l-1.8,0.7l-5.8-2.4V60l-0.9,0.7l-2.2-1.1c-0.3-0.3-1-1.1-1.6-2S55.8,56,54.6,56z"/>
</svg>
