<?xml version="1.0" encoding="utf-8"?>
<!-- Generator: Adobe Illustrator 23.0.1, SVG Export Plug-In . SVG Version: 6.00 Build 0)  -->
<svg version="1.1" id="Слой_1" xmlns="http://www.w3.org/2000/svg" xmlns:xlink="http://www.w3.org/1999/xlink" x="0px" y="0px"
	 viewBox="0 0 100 100" style="enable-background:new 0 0 100 100;" xml:space="preserve">
<style type="text/css">
	.st0{fill-rule:evenodd;clip-rule:evenodd;}
	.st1{fill-rule:evenodd;clip-rule:evenodd;fill:currentColor;}
	.st2{fill-rule:evenodd;clip-rule:evenodd;fill:#FFFFFF;}
</style>
<g>
	<g>
		<path class="st0" d="M78.2,88.4c-0.2-2.2-0.4-4.4-0.6-6.7c-0.3-3.1-0.6-7.4-0.2-10.6c0-1.2,0-2.3,0-3.5c0.2-3.3,0.4-6.6,0.6-9.9
			c0.4-3.3,0.9-6.5,1.3-9.8c0,0,0,0,0,0c-0.2-0.5-9.5-1.7-11-2c-0.7-0.1-1.4-0.2-2.1-0.4c-0.4-0.2-0.6-1.4-0.7-1.8
			c-0.2-0.9,1.7-5.7,2-6.8c2.5-8,5-16.1,7.5-24.1c0.3-1,2.9-10,2.7-10.2C77.4,2.1,67.5,0.8,66,0.8c-0.5,0.2-0.2,0.9-0.6,1.3
			c-0.3,0.3-0.9-0.2-1.2,0.2c-0.8,2.4-1.5,4.8-2.3,7.2c0,0.3,0,0.6,0,0.9c-2.5,6.8-4.6,14-6.7,21.1c-1,3.1-1.9,6.2-2.9,9.4
			c-0.6,0.7-1.3,1.5-1.9,2.2c-1.9-0.3-3.8-0.6-5.7-0.8c-0.5-0.1-1-0.1-1.1,0.4c-0.2,2-0.5,4-0.7,5.9c-0.6,5.1-0.7,10.3-1.3,15.6
			c0,2.5-0.1,4.9-0.1,7.4c0,2.4,0,4.8,0,7.2c0.4,3.5,0.1,6.9,0.5,10.2c0.2,1.5,0,7.1,1.1,7.4c0.7,0.2,1.7,0,2.4-0.1
			c1.8-0.2,3.6-0.4,5.5-0.6c6.4-0.7,12.9-1.4,19.3-2.1c1.9-0.2,8.3-0.6,9-1.5c0,0,0,0,0-0.1c0,0,0-0.1,0.1-0.1c0-0.1,0-0.2,0-0.3
			c0-0.7-0.1-2-0.5-2.5C78.8,88.8,78.5,88.6,78.2,88.4z M57.9,53.2c0.3,0.1,0.8,2-0.9,1.5c-0.2-0.1-0.5-0.2-0.7-0.3
			C55.5,53.5,57.4,53.4,57.9,53.2z M56.4,54.9c1.1,0,1.7,0.2,1.6,1.5c0,0.4,0,0.6-0.3,0.7c-0.3,0.2-1.5,0.4-1.7,0.1
			C55.7,56.7,56.1,55.1,56.4,54.9z M57.6,57.4c0.3,0.1,0.4,1.3,0.1,1.6c-0.3,0.2-1.6-0.3-1.8-0.6C55.4,57.5,57.1,57.6,57.6,57.4z
			 M56,58.9c0.4,0,1.4,0.4,1.6,0.6c0.2,0.3,0,1.7-0.3,1.8C55,62.3,55.4,59.3,56,58.9z M57.5,81.8c-0.1,0.3-1.6,1.1-1.9,0.9
			c-0.4-0.3-0.2-1.7,0-1.9C56.4,80.8,58,80.8,57.5,81.8z M57.4,84.6c-0.3,0-0.6,0-0.8,0.1c-0.3,0-0.5,0-0.8,0
			c-0.2-0.1-0.2-0.3-0.2-0.6c-0.1-1.1,0.9-1.1,1.6-1.5C57.7,82.5,57.8,84.4,57.4,84.6z M57.2,73.9c-0.2,0.2-0.4,0.2-0.7,0.2
			c-0.4,0-0.7,0.1-1.1,0.1c-0.4-0.2-0.3-1.7,0-1.9C56,72.3,58,72.9,57.2,73.9z M57.2,76.5c-0.2,0.3-1.5-0.1-1.8-0.3
			c-0.2-0.1-0.2-0.4-0.2-0.7c0-1.3,0.7-0.9,1.7-1.2C57.3,74.4,57.5,76.1,57.2,76.5z M55.5,76.6c0.5,0.1,2.4,0.3,1.7,1.2
			c-0.1,0.2-1.5,0.8-1.7,0.7C55.1,78.4,55.1,76.9,55.5,76.6z M57,78.4c0.4,0,0.6,1.6,0.3,2c-0.2,0.3-1.5,0.2-1.8,0
			c-0.2-0.1-0.2-0.3-0.2-0.6C55.3,78.4,56,78.7,57,78.4z M57.2,61.6c0.6,0,0.5,1.5,0.2,1.8c-0.3,0.2-1.6-0.5-1.8-0.8
			C55,61.6,56.6,61.8,57.2,61.6z M55.7,63.1c1,0.3,1.9,0.5,1.7,1.8c0,0.4,0,0.6-0.3,0.7c-0.3,0-0.6,0-0.8,0c-0.3,0-0.6,0-0.9-0.1
			C55.1,65.2,55.4,63.3,55.7,63.1z M56.6,65.9c1.3,0,0.7,2.1,0.4,2.1c-0.3,0.1-1.7-0.7-1.7-1C55,65.8,55.8,66.1,56.6,65.9z
			 M55.5,67.6c0.5,0.1,2.9,1.3,1.6,2.2c-0.3,0-0.6,0.1-0.8,0.1c-0.3,0-0.6,0-0.9,0C55,69.6,55.2,67.8,55.5,67.6z M55.3,70.5
			c0.2-0.4,0.9-0.1,1.4-0.3c1,0,0.7,2.2,0.3,2.3C56.4,72.7,54.6,71.6,55.3,70.5z M52.2,72.8c-1.2,0.3-1.6-1.3-0.5-1.6
			C52.9,71.1,53.3,72.5,52.2,72.8z M52.9,58.5c-1.3,0.4-1.7-1.4-0.5-1.7C53.5,56.7,53.7,58.3,52.9,58.5z M55.6,86
			c0.2-0.3,0.1-0.7,0.3-0.9c0.4,0,0.9-0.1,1.3-0.1c0.2,0,0.4,0.1,0.5,0.3c0.1,0.3,0.2,0.7,0.2,1c-0.1,0.3-3.3,2-3.4,1.9
			C53.9,87.8,55.5,86.2,55.6,86z M55.2,89.6c0-0.1,0-0.1,0.1-0.2c1.1-0.1,2.3-0.3,3.4-0.4C59.8,89,56.4,91.5,55.2,89.6z M54.6,88.9
			c0-0.3,3.3-2.1,3.7-2.3c0.5,0,0.7,0.5,0.9,0.9C60.4,89.6,54.6,88.9,54.6,88.9z M97,86.3c-0.1-2.5-0.2-5.1-0.3-7.6
			c-0.1-0.9,0.1-2-0.2-2.6c-0.6-1.1-6.5-1.2-8.4-1.1c-0.9,0.3-0.8,4.3-1.4,5.2c-0.7,1-2.9,0.1-3.9,0.8c0,0,0,0,0,0c0,0,0,0,0,0
			c0,0,0,0-0.1,0c0,0,0,0-0.1,0.1c-0.2,2.7-0.5,5.3-0.7,8c-0.1,0.3-0.3,0.5-0.4,0.8c0,0,0,0,0,0.1v0.1c0.1,0.3,0.4,0.8,0.6,0.9
			c1.7,0.7,6.8,0.7,9,0.4c0.6,0,1.2,0.1,1.9,0.1c0.8-0.1,1.5-0.4,2.1-0.5c0.7-0.1,1.4-0.2,2.1-0.3l0.2-0.2c0,0,0-0.1,0.1-0.1
			c0,0,0-0.1,0-0.1C97.1,89,97.1,87.7,97,86.3z"/>
	</g>
</g>
<path class="st1" d="M15.7,16.2c1.4,0,2.9-0.1,4,0.3c1.2,0.4,2.4,0.8,3.5,1.2c2.1,0.4,4.4-0.3,5.4,1c0.4,0.5,0.2,4.4,0.1,5.3
	c0,5.8,0,11.6-0.1,17.4c0.4,0.9,0.7,1.9,1.1,2.8c0.1,0.6,0,1.3,0,1.8c-0.1,0.9,0.2,1.4,0.3,2.2c0,0.5-0.1,0.9-0.1,1.4
	c0.1,0.3,0.2,0.6,0.3,0.9c0,0.6,0,1.2,0,1.9c0.2,1.3,0.4,2.9,0.6,4.2c0,0.5,0,0.9-0.1,1.4c0.1,0.3,0.2,0.7,0.3,1c0,0.6,0,1.2,0,1.7
	c0.1,0.4,0.2,0.8,0.4,1.2c0,0.5,0,0.9,0,1.4c0.1,0.4,0.2,0.7,0.4,1.1c0,0.5,0,1.1,0,1.6c0.2,1.3,0.6,2.9,0.8,4.2
	c0,0.3,0,0.6-0.1,0.9c0.1,0.9,0.6,1.5,0.5,2.5c-0.1,0.7,0.3,1.1,0.4,1.6c0.1,0.5,0,0.9,0,1.3c0.2,0.9,0.5,1.7,0.7,2.6
	c0.2,0.2,0.4,0.3,0.7,0.5c0.7,1,0.8,2.5,0.3,3.8c-0.4,0.9-1.8,1.6-2.8,2c-1.4,0.5-2.7,0.5-4.3,0.8c-0.8,0.2-1.6,0.4-2.4,0.6
	c-0.3,0-0.7,0-1,0c-0.8,0.2-1.5,0.4-2.3,0.6c-1.8,0.3-3,0.4-4.8,0.8c-1.2,0.2-2.7,1-4.1,0.8c-1.3-0.1-3.2-0.3-3.8-1.2
	c-0.8-1.2-0.1-3.8-0.3-5.5c-0.5-4.1-1.3-8.3-2-12.5C5.9,62,5.4,53.4,4.6,45.4c0.1-4.6,0.1-9.2,0.2-13.8c0-3.6,0-7.1,0-10.7
	c0.2-0.4,0.4-0.8,0.7-1.2c-0.1-0.6-0.2-1.1-0.2-1.7c0.2-0.2,0.5-0.3,0.7-0.5c0.2-0.4,0.1-0.6,0.4-0.9C7.2,15.9,13.9,16.7,15.7,16.2z
	"/>
<path class="st2" d="M21.9,51.6c-0.5,0.1-1.1,0.2-1.6,0.4c0,0.4,2.6,0.6,2.7,0.3C22.8,51.9,22.5,51.6,21.9,51.6z"/>
<path class="st2" d="M20,52.7c-0.3,0.2-0.2,0.4-0.2,0.8c0,0.3,0,1,0.2,1.2c0.2,0.2,3.1-0.6,3.2-0.8C23.5,52.7,20.9,52.7,20,52.7z"/>
<path class="st2" d="M23,54.7c-0.6,0.2-3.3,0.3-3,1.2c0.1,0.3,3.1,0.7,3.3,0.4c0-0.4,0-0.9,0-1.3C23.3,54.9,23.1,54.7,23,54.7z"/>
<path class="st2" d="M20.3,56.8c-0.3,0.2-0.2,0.4-0.2,0.9c0,0.3,0,1,0.2,1.2c0.2,0.2,3.1-0.7,3.2-0.9C23.9,56.6,21.3,56.8,20.3,56.8
	z"/>
<path class="st2" d="M23.3,58.7c-0.6,0.2-3.3,0.5-2.9,1.3c0.1,0.3,3.1,0.5,3.3,0.2c0-0.4,0-0.8,0-1.1C23.6,58.9,23.5,58.8,23.3,58.7
	z"/>
<path class="st2" d="M20.7,60.8c-0.3,0.2-0.2,0.4-0.2,0.9c0,0.4,0,1.2,0.2,1.4c0.2,0.1,3.1-0.8,3.2-1.1
	C24.3,60.4,21.8,60.8,20.7,60.8z"/>
<path class="st2" d="M23.7,62.9c-0.5,0.2-3.2,0.8-3,1.4c0.1,0.2,3.1,0.3,3.3,0.1c0-0.3,0-0.7,0-1C24,63.1,23.9,62.9,23.7,62.9z"/>
<path class="st2" d="M23.8,64.8c-1.4,0.5-3.2-0.8-2.9,1.2c0.1,0.4,0.1,0.8,0.2,1.3c0,0,0,0,0,0c0.1,0.1,2.9-0.8,3.1-1.1
	c0-0.4,0-0.8,0-1.2C24.1,65,23.9,64.9,23.8,64.8z"/>
<path class="st2" d="M24.1,67c-0.5,0.2-2.9,0.9-2.9,1.3c0.2,0.3,3.1,0.2,3.3,0c0-0.3,0-0.7,0-1C24.4,67.1,24.3,67,24.1,67z"/>
<path class="st2" d="M24.3,68.8c-1.9,0.6-3.1-0.9-2.8,1.7c0,0.3,0,1,0.2,1.2c0.1,0,2.9-1,3-1.1c0.2-0.3,0-1.1-0.1-1.5
	C24.5,69,24.4,68.9,24.3,68.8z"/>
<path class="st2" d="M24.7,71.2c-0.4,0.2-2.9,1.1-2.9,1.4c0.1,0.2,3,0.2,3.2-0.1c0-0.3,0-0.6,0-0.9C24.9,71.4,24.9,71.3,24.7,71.2z"
	/>
<path class="st2" d="M24.8,73.1c-1.9,0.7-3.1-0.9-2.8,1.8c0.1,0.4,0.2,0.8,0.3,1.2c0.1,0.1,2.9-1,3.1-1.3c0-0.5-0.1-0.9-0.1-1.4
	C25.2,73.2,25,73.1,24.8,73.1z"/>
<path class="st2" d="M25.2,75.6c-0.9,0.4-1.8,0.8-2.6,1.2c0,0.1,0,0.1,0,0.2c0.2,0,2.9-0.3,3-0.3c0-0.3,0-0.6,0-0.9
	C25.4,75.7,25.3,75.6,25.2,75.6z"/>
<path class="st2" d="M25.5,77.1c-0.5,0.2-2.9,0.1-3,0.5c0.1,0.5,0.1,0.9,0.2,1.4c0.1,0.4,0.2,0.9,0.3,1.3c0.1,0.1,2.9-0.9,3.1-1.1
	c0.2-0.3,0-1-0.1-1.3C25.8,77.5,25.8,77.2,25.5,77.1z"/>
<path class="st2" d="M25.9,79.9c-0.8,0.4-1.7,0.7-2.5,1.1c0,0.1,0,0.1,0,0.2c0.4,0.1,2.5-0.3,2.7,0.1c0,0,0,0,0,0
	C26.2,80.9,26.5,80,25.9,79.9z"/>
<path class="st2" d="M24.9,81.5c-0.4,0.1-2-0.1-1.8,0.5c0.1,0.5,2-0.1,2.4-0.2c0-0.1,0-0.1,0-0.2C25.2,81.5,25.1,81.5,24.9,81.5z"/>
</svg>
