<?xml version="1.0" encoding="utf-8"?>
<!-- Generator: Adobe Illustrator 23.0.1, SVG Export Plug-In . SVG Version: 6.00 Build 0)  -->
<svg version="1.1" id="Слой_1" xmlns="http://www.w3.org/2000/svg" xmlns:xlink="http://www.w3.org/1999/xlink" x="0px" y="0px"
	 viewBox="0 0 100 100" style="enable-background:new 0 0 100 100;" xml:space="preserve">
<style type="text/css">
	.st0{fill-rule:evenodd;clip-rule:evenodd;}
	.st1{fill-rule:evenodd;clip-rule:evenodd;fill:currentColor;}
</style>
<g>
	<g>
		<path class="st0" d="M56.7,28.7c0.2-6.5,0.4-13,0.6-19.4c0.1-1.1,0.3-6.3,0-7c-0.2-0.4-0.6-0.5-1.2-0.5C50.2,2,44.2,2.3,38.3,2.5
			c-2.7,0.3-4.9,0-6.5,1.2c-0.6,0.5-1.2,1.1-1.6,1.7c-0.7,1.6-1.4,3.3-2.1,4.9c-1,2.3-2.2,4.7-3.2,7.1c-0.3,0.7-1,1.7-0.8,2.7
			c0.2,0.9,1.1,1,1.7,1.5c2.5,2.1,3.2,5.4,2,9.1c-0.3,0.2-0.5,0.4-0.8,0.6c-0.7,0.6-1.3,1.3-2,1.9c-0.3,0.1-0.6,0.2-0.9,0.3
			c-0.8,0.5-1.5,1.1-2.2,1.6c-0.6,0.3-1.1,0.7-1.7,1c-0.5,0.4-0.9,0.9-1.4,1.3c-0.5,0.4-1.1,0.7-1.7,1.1c-0.4,0.4-0.7,0.7-1.1,1.1
			c-0.3,0.2-0.6,0.4-0.9,0.5c-0.6,0.5-1.1,1.2-1.7,1.7c-0.4,0.2-0.7,0.5-1.1,0.7c-0.5,0.4-0.8,1.1-1.3,1.5c-0.6,0.5-1.3,0.8-1.8,1.5
			c-0.1,0.3-0.3,0.5-0.4,0.8c-0.6,0.5-1.2,0.9-1.7,1.5c-0.1,0.2-0.2,0.5-0.4,0.7c-0.4,0.5-1,0.9-1.4,1.5c-0.1,0.2-0.1,0.5-0.2,0.7
			c-0.3,0.5-1,1-1.3,1.5c-0.1,0.3-0.2,0.6-0.2,0.8c-0.3,0.5-0.8,0.8-1,1.4c-0.1,0.3-0.2,0.7-0.3,1c-1,1.6-1.8,3,0,4.5
			c2.2,1.9,5,3.1,7.7,4.5c4.2,2,8.4,4,12.6,6c1.9,0.8,5.8,2.8,7.6,0.6c1.1-1.4-0.4-4-0.5-5.4c0.1-0.2,0.2-0.5,0.3-0.7
			c0-0.6-0.1-1.1-0.1-1.7c0.1-0.5,0.3-1,0.4-1.6c0-0.3,0-0.5,0-0.8c0.1-0.3,0.3-0.5,0.4-0.8c0.1-0.5,0.2-1,0.4-1.5
			c0.5-1.2,1.5-2.5,2.1-3.6c0.1-0.3,0.3-0.7,0.4-1c0.3-0.3,0.5-0.6,0.8-0.8c0.3-0.4,0.4-1,0.8-1.5c0.4-0.5,1-0.9,1.4-1.4
			c0.1-0.3,0.3-0.6,0.4-0.9c0.3-0.2,0.6-0.5,1-0.7c0.5-0.6,0.9-1.1,1.4-1.7c3.9-3.1,7.8-5.9,12.9-8c1.4-0.5,2.9-0.9,4.3-1.4
			c0.6-0.1,1.1-0.2,1.7-0.3l0,0c0,0,0,0,0,0c0,0,0,0,0.1,0c0-0.2,0.1-0.4,0.1-0.6c0.2-0.4,0.6-0.5,0.8-0.9v0c0,0,0,0,0,0
			c0-0.1,0.1-0.2,0.1-0.3C60.3,32.4,57,30.8,56.7,28.7z"/>
	</g>
</g>
<path class="st1" d="M89.7,35c2.2,0,5.8-0.2,6.9,1.2c0.6,0.8,0.1,2.8,0.3,4c0.1,0.3,0.3,0.6,0.4,0.9c0,3.2,0,6.4,0,9.7
	c0.1,0.8,0.8,1.1,1,1.8c0.1,0.5-0.2,0.6-0.3,1c0.1,0.5,0.2,0.9,0.3,1.4c0.1,0.4,0.6,0.8,0.4,1.3c0,0,0,0.1-0.1,0.1
	c-0.5,0.8-5.8,0.9-7,1.4c-1.6,0.7-2.6,2.1-3.3,3.7c-4.1,9.4-9.1,18.3-13.4,27.5c-0.4,0.9-1.3,2.2-1.2,3.4c0.1,0.9,0.6,1.4,0.9,2.1
	c0.8,2-0.5,3.6-1.6,4.3c-1.1,0.7-6.1-1.1-6.9-1.5c-1.4-0.5-2.9-1-4.3-1.5c-1.4-0.6-2.7-1.2-4.1-1.8c-0.3-0.2-0.6-0.5-0.9-0.7
	c-0.3,0-0.6,0-0.8,0c-2.8-1.1-6.4-2.8-8.7-4.6c-0.9-0.7-2.2-1.6-2.5-2.8c-0.6-2.1,3.5-7,4.3-8.8c1.3-2,2.5-4.1,3.8-6.1
	c2.8-4.4,5.4-8.8,8.3-13.1c1.4-2,3.6-4.7,4.5-7c1-2.8-0.4-5-2-6.2c-0.6-0.4-1.1-0.7-1.6-1.2c-1-1.2-1-4.5,0.2-5.4
	c0.8-0.6,1.7-0.6,2.8-0.9c2-0.6,4-0.9,6.2-1.1c3.7-0.4,7.5,0,11.1-0.4C84.9,35.1,87.6,35.7,89.7,35z"/>
</svg>
