<?xml version="1.0" encoding="utf-8"?>
<!-- Generator: Adobe Illustrator 23.0.1, SVG Export Plug-In . SVG Version: 6.00 Build 0)  -->
<svg version="1.1" id="Слой_1" xmlns="http://www.w3.org/2000/svg" xmlns:xlink="http://www.w3.org/1999/xlink" x="0px" y="0px"
	 viewBox="0 0 100 100" style="enable-background:new 0 0 100 100;" xml:space="preserve">
<style type="text/css">
	.st0{clip-path:url(#SVGID_2_);}
	.st1{fill-rule:evenodd;clip-rule:evenodd;fill:currentColor;}
</style>
<g>
	<defs>
		<rect  y="0" />
	</defs>

	<g class="st0">
		<path d="M33.7,57.8c-0.3,0.5-1,0.7-1.5,0.4c-0.5-0.3-0.7-1-0.4-1.5c0.3-0.5,1-0.7,1.5-0.4C33.9,56.6,34,57.3,33.7,57.8z"/>
		<path d="M27.8,68.7c-0.3,0.5-1,0.7-1.5,0.4c-0.5-0.3-0.7-1-0.4-1.5c0.3-0.5,1-0.7,1.5-0.4C27.9,67.5,28.1,68.2,27.8,68.7z"/>
		<path d="M21.2,80.3c-0.3,0.5-1,0.7-1.5,0.4c-0.5-0.3-0.7-1-0.4-1.5c0.3-0.5,1-0.7,1.5-0.4C21.3,79.1,21.5,79.8,21.2,80.3z"/>
		<path d="M33.5,3c0,0-3.1,1.1-4.9,5.3c-1.8,4.1-1.9,7.1-1.1,10.2c0.8,3.1,1.1,3.5,1.1,3.5s4.1-4.2,8.3-1.3s4.5,6.6,4.2,8.3
			c-0.3,1.7-2.6,7.3-5.9,12.7c-3.2,5.4-4.6,7.6-5.3,8.3c-0.7,0.7-2.3,1.4-2.5,2.5c-0.2,1.1,1.3,2.4,0.4,4.2
			c-0.9,1.8-1.1,1.3-3.4,4.5c-2.3,3.2-3.5,4.8-4.7,8.3c-1.2,3.5-1.4,5.1-2.7,6.3c-1.3,1.1-4.2,1.6-4.2,1.6c-0.5,0.7-1.2,3.6-1,4.6
			c0.1,1,0.4,1.4,0.4,1.4s0.4-0.1,0.5,0c0.1,0.1,0.1,0.9,0.2,0.9c0.1,0.1,0.7-0.3,0.8-0.2c0.1,0.2,0.1,0.9,0.3,1
			c0.2,0.1,0.5-0.3,0.6-0.1c0.1,0.2,0.1,1,0.3,1.1c0.2,0,0.5-0.2,0.7-0.2c0.2,0.1,0.1,0.8,0.4,0.8c0.3,0,1.8,0.3,3.3-0.8
			c1.4-1.1,2.4-2.1,2.4-2.1s0.9-0.7,1.9-2c1-1.3,5.3-7.5,7.3-11.9c2-4.3,3.7-9.7,4.4-10.8c0.7-1.1,1.2-1.9,1.2-1.9l-0.1-0.2
			c0,0,2.2-2,2.4-2.4c0.2-0.4,0-1.9,1.4-4.8c1.4-2.9,7.2-14.5,8.9-17.7c1.7-3.2,2.5-5.2,4.1-4.7c1.6,0.4,2.7,1,4.3,2.4
			s3.7,3.2,3.7,3.2s-2.4-5.8-4.7-9c-2.3-3.3-2.8-4.2-3-4.2c-0.3-0.1-2.3,0.3-4.6-2.3c-2.3-2.6-2.3-3.4-2.8-3.8
			c-0.6-0.4-10.1-9-10.1-9L33.5,3z M15.2,80.9l2.2,1.6c0.6,0.4,0.7,1.2,0.3,1.7c-0.4,0.6-1.2,0.7-1.7,0.3L13.8,83
			c-0.6-0.4-0.7-1.2-0.3-1.7C13.9,80.7,14.7,80.5,15.2,80.9z M21.1,78.4c0.8,0.4,1,1.4,0.6,2.2c-0.4,0.8-1.4,1-2.2,0.6
			c-0.8-0.4-1-1.4-0.6-2.2C19.3,78.2,20.3,77.9,21.1,78.4z M27.7,66.8c0.8,0.4,1,1.4,0.6,2.2c-0.4,0.8-1.4,1-2.2,0.6
			c-0.8-0.4-1-1.4-0.6-2.2C25.9,66.6,26.9,66.3,27.7,66.8z M33.6,55.9c0.8,0.4,1,1.4,0.6,2.2c-0.4,0.8-1.4,1-2.2,0.6
			c-0.8-0.4-1-1.4-0.6-2.2C31.9,55.7,32.8,55.4,33.6,55.9z M35.5,49.5c0.5,0.3,0.7,1,0.4,1.6c-0.3,0.5-1,0.7-1.6,0.4
			c-0.5-0.3-0.7-1-0.4-1.6C34.3,49.3,35,49.1,35.5,49.5z M44,34.5c0.8,0.5,1,1.4,0.6,2.2l-4,6.9c-0.5,0.8-1.4,1-2.2,0.6
			c-0.8-0.5-1-1.4-0.6-2.2l4-6.9C42.3,34.3,43.2,34,44,34.5z M46.1,29.1c0.5,0.3,0.7,1,0.4,1.6c-0.3,0.5-1,0.7-1.6,0.4
			c-0.5-0.3-0.7-1-0.4-1.6C44.9,29,45.6,28.8,46.1,29.1z M45.5,25.7c0.4,0.2,0.5,0.7,0.3,1.1c-0.2,0.4-0.7,0.5-1.1,0.3
			c-0.4-0.2-0.5-0.7-0.3-1.1C44.7,25.7,45.2,25.5,45.5,25.7z"/>
		<path class="st1" d="M81.5,1.8l2.3,0.6c3.1,0.9,6.2,1.9,9.2,3.1l2.4,0.9c0.4,0.3,0.7,0.8,0.8,1.4L95.3,11
			c-0.4,1.5-0.9,3.7-1.7,4.9l-1.9,1.5l-4.5,3.5c-0.7,0.4-1.4,0.9-2,1.5l-0.9,2.1l-1.7,3.7c-0.2,0.4-0.7-0.1-1.1,0.8l-7.7,16.9
			C71,52,69.1,59.3,67,66c-0.8,2.7,5.5,3.9,6.5,5.6c0.5,0.8-3,5.9-3.5,6.8l-8.9,14.9c-2.7,2.7-6.2,4.6-10,5.5
			c-1.4,0.3-3.9,0.9-5.4,0.3c-0.5-0.2-0.6-1-0.8-1.5c-1.7-3.9-3.6-10.6-2.5-16.4l2.1-3.4l8.6-13.7l1.8-3.1c0.3-0.1,6,3.4,6.9,3.8
			c0.1,0.1,0.2,0.1,0.4,0.2c0.1,0,0.3,0,0.4-0.1c0.7-0.9,0.8-2.4,1.2-3.6l3.4-11.4c2.1-5.7,4.6-11.2,7.3-16.6l3.2-6.7l-0.3-0.9
			c1-2.4,2.8-4.4,3-7.1l-0.2-0.8c-0.4-3-1.1-5.5-1.4-8.3c-0.2-1.8,0.7-3.4,1.1-4.8C80.1,3.4,80.5,2.2,81.5,1.8z M82.4,6.6
			c-0.4,0.1-0.7,2.8-0.6,3.5l1.6,7.5c0.1,0.1,0.3,0.2,0.4,0.2c0.2,0,0.3,0,0.5,0c1.4-0.2,9-5.9,8.2-7.5l0,0L92.2,10
			c-2.2-0.9-4.5-1.2-6.6-2.1l-3-1.3L82.4,6.6L82.4,6.6z"/>
	</g>
</g>
</svg>
