<?xml version="1.0" encoding="utf-8"?>
<!-- Generator: Adobe Illustrator 23.0.1, SVG Export Plug-In . SVG Version: 6.00 Build 0)  -->
<svg version="1.1" id="Слой_1" xmlns="http://www.w3.org/2000/svg" xmlns:xlink="http://www.w3.org/1999/xlink" x="0px" y="0px"
	 viewBox="0 0 100 100" style="enable-background:new 0 0 100 100;" xml:space="preserve">
<style type="text/css">
	.st0{clip-path:url(#SVGID_2_);}
	.st1{fill-rule:evenodd;clip-rule:evenodd;fill:currentColor;}
</style>
<g>
	<defs>
		<rect  x="2" y="0" width="68.8" height="100"/>
	</defs>

	<g class="st0">
		<path d="M2.7,32c0.1,0.3,0.8,2.7,1.4,4.4C4.7,38.2,24.2,74.5,25,74.9c0.7,0.3,2.5,0.3,2.8,0.3c0,0,0,0,0,0c0,0.1-0.1,0.4-0.2,1
			c-0.1,0.7,0,1.1,0,1.3v0l-1.3,1.3c0,0,0,0,0,0l0.9,21.2c0,0,0,0,0.1,0l2.7-8.5c0,0,0,0,0,0c-0.1-0.2-0.8-2,0-3.9
			c0.8-1.8,1.7-2.4,1.8-2.5l1.6-5.2l0,0c0.2,0,1.1,0.3,1.5,0.3H35c0.4,0,1.3-0.3,1.5-0.3c0,0,0,0,0,0l1.6,5.2c0.1,0.1,1,0.7,1.8,2.5
			c0.8,1.9,0.1,3.7,0,3.9c0,0,0,0,0,0l2.7,8.5c0,0,0.1,0,0.1,0l0.9-21.2c0,0,0,0,0,0l-1.3-1.3c0,0,0,0,0,0c0-0.1,0.1-0.6,0-1.3
			c0-0.6-0.2-0.9-0.2-1c0,0,0,0,0,0c0.3,0,2.1,0,2.8-0.3c0.7-0.3,19.8-35.8,20.8-38.4l4.7-5.5l0.2-1.4l-4-3.7v0L64.5,24l0.4-9.2
			c0,0,0.5-1.1,1.2-2.9c0.8-1.7,0.8-5.6,0.8-5.6l-4.5,6.4l-0.8-7.8c0,0-1.4,3-2.2,6.7c-0.8,3.7-0.3,10.5-0.3,10.5l-0.6,0.2L54.1,18
			l-1.2,1.3l-4-5l-6.7-5.2l-1.1,1.1l0.9,1c0,0,0,1.3,0,2.5s1.3,3.7,1.3,3.7s1.2-1.1,1.8-1.5c0.6-0.4,1.8,0,1.8,0s4,4,3,5.1
			c-0.9,1.1-1.9-0.9-2.5-0.6c-0.6,0.3,0.6,1.7,1.8,2.1c1.2,0.3,4.2-1.1,4.2-1.1l3,2.9c0,0-15.2-0.5-16.5-0.5c-1.3,0-4.6,2.3-4.6,2.3
			l16.4,1.7v0.6l-14.3,4.2L35.1,34l0.8,2.3l2.5-0.1L52.1,32L36,52c0,0,2.3-0.8,6.8-3c3.9-1.9,10.5-10.5,12-12.5l0.5,1.3c0,0,0,0,0,0
			l-3.4,8l-3,1.3l-4.5,9.7l0.3,2.8c0,0,0,0,0,0l-1.6,0c0,0,0,0,0,0l-5.5,11.8c0,0,0,0,0,0c-0.2,0-1.5-0.4-2.3-0.4H35
			c-0.8,0-2.1,0.4-2.3,0.4h0l-5.5-11.8c0,0,0,0,0,0l-1.6,0c0,0,0,0,0,0l0.3-2.8L21.3,47l-3-1.3l-1.4-3.5c0,0,0,0,0,0l1.3-3.5
			l0.4,1.2h0.8v1.3l0.8-0.3l0.2,1.4h0.9v1.1l0.7-0.1v1.1l0.8-0.1l-0.2,0.9h0.8l-0.2,0.8h0.8l-0.2,0.7H25v0.7h0.7v0.8h0.7v0.7H27v0.8
			h0.5l-0.2,0.8h0.9l-0.1,0.8h0.7l-0.1,0.8h0.7v0.8h0.7L30,53.6h0.8l1.1,1.7c0,0,2.3-1.1,2.1-3.1c-0.3-2-16.5-20.7-16.5-20.7
			l0.3-0.3L30,38c0,0,1.8,1,2.8,1.1c0.9,0.1,1.2,0,1.2,0L32.4,38c0,0-0.6-0.1-0.9-0.3c-0.3-0.2-0.2-0.4-0.1-0.6
			c0-0.1,0.6-0.2,0.8,0.1c0.2,0.2,0.3,0.7,0.3,0.7l1.6,1.1c0,0-0.1-1.4-0.6-1.9c-0.5-0.6-15.8-8.8-15.8-8.8l2.4-1.5
			c0,0,1.4,0.7,2.3,0.7c0.9,0,7.5-1.9,7.5-1.9l-0.5-3.2l-3.1,0.3c0,0-2.5,0.7-3.3,1.1s-3.8,1-3.9,0.6c0-0.3,0.7-1.2,0.5-1.6
			c-0.2-0.4-0.4-0.4-0.4-0.4l-3,1l9.4-12.5c0,0,2.1-3.6,2.5-6.1c0.4-2.4,0.5-4.7,0.5-4.7s-7,6.9-8.7,8.9c-1.7,2-10,13.6-10,13.6
			s-0.3,0.8-0.2,1c0,0.1,0,0.5,0,1c-1.6-0.3-3.8-0.7-4-0.7c0,0,0,0,0,0L2,27.1L2.7,32z M66.5,27.4l2.4,2l-0.1,1.1l-1.9,1.1L66,30.7
			c0,0,0,0,0,0L66.5,27.4z M47.5,40.9h-0.3c-0.5,0-1-0.3-1.2-0.8l4-5l0.1,0c0.7-0.2,1.4,0.2,1.5,0.9l0,0.1L47.5,40.9z M21.2,38.3
			c0.5-0.3,0.9,0.3,0.9,0.3l4.7,5.6h-1.6l-4.2-5C21.1,39.2,20.7,38.7,21.2,38.3z M18.1,12.6c0,0,0.8-1.1,1.4-0.7s0,1.2,0,1.2
			L15.9,18h-1.7L18.1,12.6z"/>
	</g>
</g>
<g>
	<g>
		<path class="st1" d="M96.3,60c-0.1-0.3,0.5-0.8,0.6-1.3c0.1-0.5-0.4-0.4-0.4-0.7c0.9-1.4-0.8-0.8-1.2-1.6
			c-0.1-0.7-0.2-1.4-0.3-2.1c0-0.2,0.3-0.3,0.4-0.4c0-0.2,0.1-0.3,0.1-0.5c0.1-0.2,0.3-0.1,0.4-0.2c0.2-0.3,0.4-1.1,0.3-1.6
			c-0.1-0.6-0.5-0.5-0.7-0.8c-0.1-0.1,0.1-0.2,0-0.4c-0.1-0.2-0.2-0.4-0.3-0.6c-0.3-0.4-0.8-0.6-1-1c0-0.4-0.1-0.8-0.1-1.2
			c-0.3-0.4-1-0.7-1.5-0.8l-0.4-0.1c-0.1-0.1-1-0.8-1.1-0.9c-0.1-0.1-0.2-0.3-0.2-0.4c-0.2-0.1-0.4-0.2-0.6-0.3
			c-0.1-0.1-0.2-0.2-0.4-0.3c0,0,0,0,0,0c-0.5-0.2-0.9,0.1-1.4,0c-0.6-0.1-1.2-0.2-1.7-0.3c-1.7-0.3-3.4-0.6-5.2-1
			c-1.2-0.2-2.4-0.6-3.7-0.6c-0.2,0-0.3,0-0.5,0.1c-0.4,0.2-0.4,0.5-0.9,0.6c-0.4,0.1-0.8,0.1-1.2,0.2c-0.3,0.1-0.6,0.2-0.9,0.4
			c-0.3,0.1-0.6,0-0.8,0.2c-0.6,0.4,0,0.5-0.1,0.9l0,0c-0.1,0.2-0.4,0-0.6,0.2l0,0.8c-0.1,0.3-0.4,0.7-0.6,0.8c0,0,0,0,0,0
			c-0.1,0-0.3,0-0.4,0.1l-0.5,0.5c0,0,0,0,0,0c-0.5,0.1-1-0.3-1.4-0.1c-0.7,0.3-1,0.7-1.2,1.6c0,0.3,0,0.5-0.1,0.8
			c-0.2,0.1-0.4,0.2-0.7,0.3c-0.4,0.2-1.6,1.1-1.4,1.7c0.1,0.3,0.2,0.6,0.4,0.9c0.1,0.2-0.3,0.2-0.5,0.2c-1.5,0-2.1,2.9-0.8,3.4
			c0,0.2-0.1,0.2-0.2,0.1c-0.2-0.1-0.4-0.1-0.6-0.2c-0.6-0.1-1,0.4-1.2,0.7c0,0.1,0,0.2,0,0.3c0.6,0.9-0.4,0.6-0.4,1.3v0.3
			c0,0.2,0.5,1.1,0.5,1.1c0,0,0,0,0,0c-0.2,0.1-0.4,0.2-0.6,0.3c-0.5,0.3-0.7,0.8-0.9,1.4c0,0,0,0.1,0,0.1c-0.1,0.4-0.1,0.8,0.1,1.1
			c0.1,0.2,0.7,0.8,0.7,1c0,0,0,0,0,0.1c-0.2,0.2-0.6,0.2-0.8,0.3c-0.4,0.3,0,0.5-0.1,0.8c-0.2,0.6-0.7,0.2-0.7,1.2v0.3
			c0.1,0.4,0.3,0.9,0.6,1c0.2,0.1,0.7,0.1,0.8,0.3c0.2,0.4-0.3,3.8-0.4,4.5c0,0.2-0.2,0.1-0.4,0.1c-1-0.3-1.6,0.5-1.8,1.3
			c-0.2,0.7-0.1,1.6,0.3,2c0.1,0.1,0.4,0.1,0.4,0.4c0.1,0.5-0.8,0.8-0.9,1.5c0,0.1,0,0.1,0,0.2c0,0.5,0,1,0.2,1.4
			c0.2,0.3,0.4,0.5,0.6,0.8c0,0.2-0.1,0.3-0.2,0.5c-0.3,0.7-0.4,1.4-0.1,2.1c0.2,0.5,1.1,0.6,1.5,0.9c0,0,0,0,0,0
			c0.2,0.2,0.2,0.5,0.3,0.8c0.1,0.1,0.2,0.2,0.2,0.3c0,0,0,0,0,0c0.1,0.3,0.1,0.6,0.2,0.9c-0.1,0.2-0.2,0.3-0.3,0.5
			c0,0.3,0.3,0.3,0.1,0.6c-0.1,0.3-0.3,0.1-0.6,0.3c-0.3,0.2-0.1,1.3,0,1.5c0.2,0.4,0.7,0.3,0.9,0.6c0.1,0.1,0.1,0.3,0.2,0.4
			c0.5,0.4,1,0.9,1.5,1.3c0,0.2,0.1,0.3,0.1,0.5c0.2,0.2,0.4,0.4,0.5,0.6c1,0.7,3,1.4,4.3,1.8c0.9,0.3,1.7,0.3,2.5,0.5
			c1.3,0.5,2.7,1.2,4.1,1.5c0.7,0.2,1.5,0.5,2.2,0.7c0.3,0,0.6,0.1,0.9,0.1c0.1,0,0.2-0.1,0.3-0.1c0.5,0.1,1.4,0.6,2,0.3
			c0.5-0.2,0.5-0.8,0.9-1.2c0.4-0.1,0.9-0.2,1.3-0.3c0.3-0.1,0.6-0.3,0.7-0.7c0-0.1,0-0.3,0-0.4c0.1-0.2,0.3,0,0.5,0
			c0.6-0.1,0.9-0.8,1-1.4c0-0.4,0.1-0.7,0.1-1.1c0-0.2-0.3-0.5-0.3-0.7c0,0,0,0,0,0c0.4-0.5,0.8-1,1.2-1.4c0.1,0,0.2,0.1,0.3,0.1
			c0.7,0.1,1.3,0.3,1.7-0.2c0.6-0.7-0.4-0.6,0.1-1.3c0.1-0.1,0.3-0.1,0.4-0.2c0.2-0.2,0-0.5,0.1-0.7c0.2-0.3,1-0.5,1.3-1
			c0.4-0.5,0.3-1,0.2-1.7c0-0.1-0.1-0.3-0.1-0.4c0,0,0-0.1,0-0.1c0.1-0.1,0.3,0,0.4,0c0.2-0.1,0.3-0.2,0.5-0.3c0,0,0,0,0,0
			c0.7-0.7-0.1-0.6,0.1-1.4c0.1-0.2,0.3,0,0.5-0.1c0.3-0.2,0-1-0.1-1.2c0-0.1,0-0.1,0-0.2c0.1,0,0.3,0,0.4,0c0.3-0.1,1-0.8,0.8-1.2
			c-0.1-0.3-0.5-0.1-0.3-0.6c0.1-0.3,0.6-0.1,0.5-0.6c0-0.2-0.4-0.7-0.4-0.8c0-0.1,1-0.5,1.2-0.7c0.2-0.3,0.4-1.1,0.4-1.5
			c0.1-0.5-0.9-1-0.8-1.3l0-0.1c0,0,0.7-0.2,0.9-0.4c0.1-0.1,0.6-0.8,0.5-1.1c-0.1-0.2-0.4-0.1-0.4-0.3c0-0.4,0.4-0.3,0.5-0.6
			c0-0.1-0.1-0.2-0.1-0.4c-0.2-0.7-1.5-0.6-1.3-1.3c0.2-1.2,0.4-2.3,0.6-3.5c0.2-0.3,0.7,0.2,1,0l0,0c0.5-0.2,0.1-0.4,0.3-0.6
			c0.2-0.2,0.4-0.1,0.5-0.5c0.2-0.4,0.2-1.3,0-1.7c-0.1-0.1-0.6-0.6-0.6-0.6c0-0.2,0.9-0.6,1-1c0.2-0.6,0.1-1.4-0.1-1.8
			C96.6,60.3,96.3,60.2,96.3,60z M62.6,78.5C62.6,78.5,62.6,78.5,62.6,78.5c-1.1-0.3-0.9-1.2,0-1.6c0.2,0,0.6,0.1,0.7,0.2
			C63,77.4,62.7,78.4,62.6,78.5z M90.3,54.5c0,0.1,0.1,0.1,0.1,0.2C90.4,54.7,90.3,54.6,90.3,54.5L90.3,54.5z M88.1,61.4
			c1.3-0.1,0.5-1.8,1.3-2.4c0.4,0,2.2,0.4,2.1,0.7c-0.4,0.3-1.2,2.3-1.4,2.4c-0.2,0.1-1.2-0.2-1.4-0.3c-0.3-0.1-0.8,0-0.9-0.2
			C87.9,61.4,88,61.4,88.1,61.4z M88.2,65.9c0.2-0.2,0.6-0.2,0.9-0.3c0.2,0,1.4,1,1.4,1.2c0.1,0.1-0.3,2.2-0.4,2.3
			c-0.3,0.1-0.6,0.2-0.9,0.3c-0.2,0-1.3-1.1-1.4-1.3C87.7,67.9,88.1,66,88.2,65.9z M85.1,58c1.1,0,1.3,1.2,1.1,2.4
			c0,0.3,0.1,0.5,0.1,0.8l-0.1,0.1c-0.4,0.1-0.9-1.1-1.1-1.3c-0.3-0.2-0.6-0.4-0.9-0.6C83.7,58.7,84.8,58.1,85.1,58z M79.5,53.5
			c0.3,0,0.4,0,0.5,0.2c0,0.1,0.3,0.6,0.1,0.7c-0.1,0-0.1,0.1-0.2,0.1c-0.2,0-0.5,0-0.7,0c-0.8,0.2-1.1,0.3-1.6,0.8
			c-0.1,0.1-0.2,0.2-0.4,0.1c-0.1,0-0.3-0.1-0.3-0.2C77.7,54.7,78.5,53.9,79.5,53.5z M72.1,53.3c0.2-0.3,0.4-0.9,0.7-1
			c0.4,0,2.4,0.4,2.5,0.6c0,0.5,0.1,1,0.1,1.5c0,0.2,0.2,0.6,0.1,0.7c-0.1,0-3.5-0.6-3.6-0.7C71.7,54.1,72,53.5,72.1,53.3z
			 M70.3,52.5C70.3,52.5,70.3,52.5,70.3,52.5L70.3,52.5c-0.1,0.2-1.7,1.8-2.1,0.9C67.8,52.7,69.8,52.8,70.3,52.5z M64.6,63.9
			c-0.2-0.2-0.5-0.3-0.7-0.6c-0.1-0.2,0-0.5,0.1-0.6c0.1-0.2,0.1-0.4,0.2-0.6c0.2-0.3,0.9-0.3,1.2-0.4c0.3-0.2,0.5-0.4,0.8-0.7
			c0.7,0.3,4.4,0.8,4.6,1.2c0.4,0.6-0.6,3.4,0.1,3.7c0.2,0.1,1.5,0.4,1.6,0.3c0.6-0.3,0.3-3.2,1.8-3.2c0.1,0,0.2,0,0.3-0.1
			c0,0,0.7,1.1,1,1.3c0.4,0.3,0.2,1,0,1.4c0,0-0.1,0.1-0.1,0.1c-0.2,0.2-0.7,0.1-1,0.2c-0.4,0.2-0.6,0.4-0.9,0.7
			c-0.1,0-0.1,0.1-0.2,0.1c-0.3,0.1-4.9-1.2-5-1.3l0,0c-0.2-0.3,0.3-1,0.4-1.3c0.1-0.4,0-0.9-0.1-1.2c-0.1-0.7,0.1-1.2-0.7-1.3
			c-0.4-0.1-1.9,1.5-2.1,1.9c-0.2,0.4-0.4,0.8-0.5,1.2c-0.1,0-0.2,0.1-0.3,0.1C65.1,64.8,64.7,64,64.6,63.9z M65.4,73.1
			c-0.1-0.2,0.5-3.8,0.6-3.9c0.2-0.3,1.7-0.6,2.1-0.8c0.2,0,2.4,2.2,2.5,2.5c-0.2,1.4-0.4,2.7-0.6,4.1c-0.1,0.2-1.5,0.6-1.8,0.7h0
			C68.1,75.6,65.5,73.3,65.4,73.1z M67.6,78.4c-0.1,0-0.1-0.1-0.2-0.1h0c0,0,0,0,0,0c0,0,0-0.1,0-0.1c0.2,0.1,0.4,0,0.5,0.2
			c0.2,0.2,0.1,0.7,0.2,0.9c0.4,0.8,1.1,1.6,1.4,2.5v0.1c-0.1,0.2-0.3,0-0.5-0.1c-1.3-0.4-1.3-0.9-1.3-2.6
			C67.7,78.9,67.7,78.6,67.6,78.4z M67.3,78.1C67.3,78.2,67.3,78.2,67.3,78.1c0,0-0.1,0-0.1,0v0H67.3z M69.8,87.7c0,0-0.1,0-0.1,0
			c-0.3,0-2.9-1.7-3-1.9c-0.1-0.2-0.2-0.4,0-0.6c0.4,0,2.6,1.8,3,2.1C69.7,87.4,69.8,87.5,69.8,87.7C69.8,87.6,69.8,87.6,69.8,87.7z
			 M72.4,82.8c-0.8-0.2-1.6-0.4-2.4-0.6c0,0,0-0.1,0-0.1c0.1-0.1,0.1-0.2,0.3-0.1c1.1,0.1,1-1.7,1.5-1.9c0,0,0,0,0.1,0
			c0.3,0.4,0.4,0.8,0.8,1c0.2,0.2,0.5,0.3,0.7,0.5c0,0.1,0,0.3,0.1,0.4C73.3,82.3,72.7,82.7,72.4,82.8z M81.7,71.3
			c-0.2,0.1-0.4,0.2-0.7,0.3c-0.2,0.1-0.4,0.4-0.5,0.6c0,0,0,0.1-0.1,0.1c0,0,0,0.1-0.1,0.1c-0.6,1.3,0.6,2,0.5,2.2c0,0,0,0,0,0
			c-0.1,0.1-0.2,0.1-0.4,0.1c-0.2,0.2-0.5,0.4-0.7,0.6c-0.2,0.4-0.3,0.8-0.4,1.2c0,0.2,0,0.4,0,0.6c-0.1,0.2-0.7,0.2-0.8,0.4
			c-0.1,0.4-0.3,0.8-0.4,1.2c-0.3,0.5-0.5,1-0.8,1.5c-0.2,0.3-0.6,0.4-0.7,0.8c-0.1,0.3-0.1,0.6-0.3,0.9c-0.2,0.5-1.1,1.9-1.5,2.1
			c-0.1,0-0.1-0.5-0.3-0.6c-0.1-0.1-0.4-0.2-0.4-0.3c0-0.3,1-0.9,1.2-1.3c0.2-0.3,0.1-1.1,0-1.5c-0.1-0.5-0.7-0.7-0.8-1.1
			c-0.1-0.4,1.1-1.7,0.3-2.1c0-0.1-0.1-0.1-0.1-0.2c0-0.2,0.4-0.2,0.3-0.5c-0.4-0.9-1.4-0.2-1.5-1.4c0-0.1,0-0.2,0-0.2v0
			c0.2-1.2,0.4-2.4,0.6-3.7c0.2-0.3,0.8,0,1,0c1-0.2,1.5-1.6,1.3-2.8C76.3,68,76,68,76,67.7c0.2-0.5,1.3-0.5,1.6-1.3
			c0.2-0.4,0.4-1.3,0.2-1.8c-0.1-0.3-0.8-0.7-0.8-1.1c0-0.2,0.6-0.3,0.7-0.4c0.3-0.2,0.9-1.4,0.8-2c-0.1-0.1-0.2-0.2-0.4-0.4
			c0.1-0.1,0.1-0.2,0.2-0.3c0.2-0.3-0.2-0.5-0.3-0.7c0,0,0,0,0,0c0,0,0,0,0-0.1c0.2-0.2,0.6,0.1,0.8,0c0.1-0.1,0.3-0.2,0.4-0.3
			c0,0,0,0,0.1-0.1c0.3-0.3,0.5-0.9,0.6-1.4c0-0.2,0.1-0.4,0.1-0.6c0.2-0.3,0.9-0.4,1.2-0.6c0.3-0.2,0.4-0.5,0.6-0.8c0,0,0,0,0,0
			c0.1-0.2,0.3-0.4,0.2-0.7c-0.1-0.3-0.5-1-0.3-1.3c0.1-0.2,0.6,0,0.8-0.1c0.2-0.1,0.1-0.3,0.2-0.4c0.1,0,0.2-0.1,0.3-0.1
			c0.3-0.1,0.3-0.5,0.4-0.9c0.1-0.1,0.1-0.2,0.2-0.3c0.1,0,0.1,0.1,0.2,0.1c0,0,0,0,0.1,0.1l0,0c0.2,0.1,0.2,0.7,0.3,0.9
			c0,0.3,0.1,0.6,0.1,0.9c-0.1,0.2-0.4-0.1-0.6,0c-0.6,0.2-0.9,1-1,1.7c-0.1,0.4,0.3,0.4,0.3,0.7c0,0.2-0.2,0.3-0.1,0.5c0,0,0,0,0,0
			c0,0,0,0,0,0c0,0,0,0,0,0.1c0.2,0.1,0.3,0.2,0.5,0.3c0,0,0,0.1,0,0.1c-0.3,0.3-0.7,0.6-1,0.9c-0.2,0.3-0.1,1,0,1.4
			c0.1,0.5,0.6,0.7,0.7,1.1c0,0.3-0.7,1.2-0.4,2.1c0.3,0.9,1,0.7,1.4,1.2c0.1,0.2-0.4,3.2-0.5,3.6c-0.1,0.3-0.3,0.4-0.6,0.3
			c-0.5-0.2-0.6,0-0.9,0.3c-0.5,0.4-0.9,1.1-0.7,2.1C81.5,70.8,81.8,71.2,81.7,71.3z M88.8,85.1c-0.3-0.1,0.2-0.8,0.3-0.9
			C89.5,84.2,89.6,85.3,88.8,85.1z M90.3,73.9c-0.3,0.4-0.4,2.6-0.9,2.7c-0.3,0.1-0.6-0.1-0.9-0.2c-1-0.2-1.8-0.4-2.7-0.6
			c-0.2,0-0.4,0-0.6,0c-0.2-0.1-0.4-0.2-0.5-0.3c-0.6-0.1-1.1-0.2-1.7-0.3c-0.2-0.1-0.3-0.4-0.4-0.6c-0.4-0.5-1-0.6-0.4-1.6
			c0.2-0.3,1-0.3,1.3-0.4c0.1-0.1,0.3-0.2,0.4-0.3c0.1,0,0.1,0,0.2,0.1c0.1,2.1-1.7,2.6,1.3,3.1c1.7,0.3,1.4-2.3,2.6-2.6
			c0.4-0.1,1.8,0.5,2.2,0.6c0.5,0.1,1.9,0.3,2.2,0.6c0,0,0,0.1,0,0.1C91.8,74.2,90.5,73.6,90.3,73.9z M92.2,76.3
			c-0.2,0,0.1-1.8,0.2-1.9c0.1,0.1,0.2,0.1,0.2,0.2c0.2,0.1,0.3,0.3,0.5,0.4C93.4,75.6,92.8,76.4,92.2,76.3z M94.3,62.9
			c0,0-0.1,0-0.1,0c-0.1-0.1-0.2-0.1-0.3-0.2c-0.2-0.3,0-0.6-0.1-0.8c-0.4-0.7-0.8-1.3-1.2-2c0,0,0-0.1,0-0.1c0,0,0,0,0.1,0
			c0.3,0.1,0.5,0.1,0.8,0.2c0.1,0.1,0.3,0.8,0.5,1c0.3,0.4,0.7,0.4,1,0.7c0,0,0.1,0.1,0.1,0.1c0,0,0,0,0,0
			C95.2,62.3,94.5,62.8,94.3,62.9z"/>
	</g>
</g>
</svg>
