<svg xmlns="http://www.w3.org/2000/svg"  viewBox="0 0 100 100">
  <defs>
    <style>
      .cls-1 {
        fill: currentColor;
      }

      .cls-1, .cls-2 {
        fill-rule: evenodd;
      }
    </style>
  </defs>
  <path class="cls-1" d="M37.967,50.05l7.226,0.307,4.329,1.363,2.822,0.764c0.319,0.14.172,0.691,0.457,0.8l3.94,1.023c0.577,0.321.661,0.982,1.138,1.363a7.88,7.88,0,0,1,.954.382l0.02,0.014,0.457,0.886a18.641,18.641,0,0,1,2.468,1.95c3.184,3.735,4.284,9.832,3.477,16.906-0.324,2.84-.274,5.585-0.641,8.262a8.316,8.316,0,0,1-.423,2.611c-0.906,1.576-5.22,1.791-7.376,2.209l-1.663.314c-0.489.229,0.14,1.592-.429,1.786a6.485,6.485,0,0,1-4.267-.327l-1.248-.334-19.5,3.715-4.036.818c-0.32.273,0.052,1.311-.116,1.711-0.187.444-1.735,0.563-2.277,0.648H23.222c-1.5.2-3.77-1.5-5.14-1.827a7.653,7.653,0,0,0-3.177.341l-0.968.157-0.191-.1-0.32-.716-1.656-.252L11.709,94.8l-0.15-.075a4.078,4.078,0,0,1-1.432-1.582L9.9,92.431,9,91.681a5.917,5.917,0,0,1-1.813-2.665c-0.56-1.8-.473-4.546-0.7-6.612L6.235,77.386,6.18,73.7l0.061-3.075c0.371-3.385.7-6.353,2.066-8.678a6.5,6.5,0,0,1,1.752-2.011l0.8-.491,0.627-.961,1-.389c0.659-.562.929-1.355,1.827-1.718l5.01-1.547c0.335-.15.005-0.85,0.4-1.029l4.942-1.513L27.9,51.175l0.47-.239a65.627,65.627,0,0,1,6.674-.757Zm2.713,2.713a11.024,11.024,0,0,1-4.424.641l-1.609-.13-1.091-.2c-0.541.087-3.044,1.455-2.952,1.847a18.762,18.762,0,0,0,2.236,4.1l4.656-.286a5.448,5.448,0,0,0,1.5-.627c1.589-.94,1.963-2.058,2.986-3.511l0.641-.859A3.825,3.825,0,0,0,40.68,52.763Z"/>
  <path class="cls-2" d="M53.706,3h18.1V3.285h3.244v7.733H94.166L98,15.836H26.223l3.856-4.819H49.192V7.234H49.169V3.285h4.537V3Zm0,4.231H51.642l0.84,3.784H71.763L72.6,7.234H71.808V7.915H70.633v-0.4H70.115v0.4H68.94v-0.4H68.422v0.4H67.247v-0.4H66.73v0.4H65.555v-0.4H65.037v0.4H63.862v-0.4H63.345v0.4H62.169v-0.4H61.652v0.4H60.476v-0.4H59.959v0.4H58.784v-0.4H58.267v0.4H57.091v-0.4H56.574v0.4H55.4v-0.4H54.881v0.4H53.706V7.234ZM98,15.836H26.223v5.876h1.011V45.1H29.82v1.2h7.288V45.1h50v1.2H94.4V45.1h2.61V40.493H96.987V21.713H98V15.836Z"/>
</svg>
