<?xml version="1.0" encoding="utf-8"?>
<!-- Generator: Adobe Illustrator 23.0.1, SVG Export Plug-In . SVG Version: 6.00 Build 0)  -->
<svg version="1.1" id="Слой_1" xmlns="http://www.w3.org/2000/svg" xmlns:xlink="http://www.w3.org/1999/xlink" x="0px" y="0px"
	 viewBox="0 0 100 100" style="enable-background:new 0 0 100 100;" xml:space="preserve">
<style type="text/css">
	.st0{fill-rule:evenodd;clip-rule:evenodd;}
	.st1{fill:currentColor;}
	.st2{fill-rule:evenodd;clip-rule:evenodd;fill:currentColor;}
</style>
<path class="st0" d="M7.6,48.7l-6.5,1.4v1.8l6.5,1.8h6.5v-0.5h27.5v0.5h6.8v-0.5h0.9v0.5h6.8v-0.5h12.9v4.3h9.7l2,2.3l16.9,0.7
	l0.2,1.6h1.1V39.6h-1.1l-0.2,2l-16.9,0.9l-1.8,1.1v1.4h-9.9v4.5H56.1v-0.9h-6.8v0.9h-0.9v-0.9H45l0.7-6.6h-1.4
	c-0.2,2-0.7,6.2-0.7,6.6h-2v0.9H14.1v-0.9H7.6z M88.1,46h8.6v3.2h-8.6V46z M88.1,53.2h8.6v3.2h-8.6V53.2z"/>
<g>
	<path class="st1" d="M41.7,26.1l6.5-1.4h6.5v5h-6.5l-6.5-1.8V26.1z"/>
	<path class="st1" d="M30.2,24.7l-6.5,1.4v1.8l6.5,1.8h6.5v-5H30.2z"/>
	<path class="st1" d="M3.8,26.1l6.5-1.4h6.5v5h-6.5l-6.5-1.8V26.1z"/>
	<path class="st1" d="M4.2,32.4h11.7v7.7H4.2V32.4z"/>
	<path class="st2" d="M38,33.8H20v5h18V33.8z M31.7,36.9c2.2,0,4.1-0.5,4.1-1.1c0-0.6-1.8-1.1-4.1-1.1c-2.2,0-4.1,0.5-4.1,1.1
		C27.7,36.4,29.5,36.9,31.7,36.9z"/>
	<path class="st1" d="M50.5,31c-1.1,0-2,0.9-2,2c0,1.1,0.9,2,2,2h8.1c0.7,0,1.3-0.4,1.7-0.9l29.2-0.5v-0.9l-29-0.4
		c-0.3-0.8-1-1.4-1.9-1.4H50.5z"/>
	<path class="st1" d="M98.9,28.1c0-1.1-0.9-2-2-2h-8.1c-0.9,0-1.6,0.6-1.9,1.4l-29,0.4v0.9l29.2,0.5c0.4,0.5,1,0.9,1.7,0.9h8.1
		C98,30.1,98.9,29.2,98.9,28.1z"/>
</g>
<g>
	<path class="st1" d="M4,72.5h92.9v3.6H4V72.5z"/>
	<path class="st1" d="M32.4,62.5v7.7h11.7v-7.7H32.4z"/>
	<path class="st1" d="M6.3,69.7c1.7,0,3.2-1.4,3.2-3.2c0-1.8-1.4-3.2-3.2-3.2c-1.7,0-3.2,1.4-3.2,3.2C3.1,68.3,4.5,69.7,6.3,69.7z"
		/>
	<path class="st1" d="M18.4,66.6c0,1.7-1.4,3.2-3.2,3.2c-1.7,0-3.2-1.4-3.2-3.2c0-1.8,1.4-3.2,3.2-3.2C17,63.4,18.4,64.8,18.4,66.6z
		"/>
	<path class="st1" d="M24.3,69.7c1.7,0,3.2-1.4,3.2-3.2c0-1.8-1.4-3.2-3.2-3.2c-1.7,0-3.2,1.4-3.2,3.2
		C21.1,68.3,22.5,69.7,24.3,69.7z"/>
</g>
</svg>
