<?xml version="1.0" encoding="utf-8"?>
<!-- Generator: Adobe Illustrator 23.0.1, SVG Export Plug-In . SVG Version: 6.00 Build 0)  -->
<svg version="1.1" id="Слой_1" xmlns="http://www.w3.org/2000/svg" xmlns:xlink="http://www.w3.org/1999/xlink" x="0px" y="0px"
	 viewBox="0 0 100 100" style="enable-background:new 0 0 100 100;" xml:space="preserve">
<style type="text/css">
	.st0{fill:currentColor;}
	.st1{fill-rule:evenodd;clip-rule:evenodd;fill:currentColor;}
	.st2{fill-rule:evenodd;clip-rule:evenodd;}
</style>
<g>
	<path class="st0" d="M89.8,79.7c0.8,0.3,2.3,0.3,4.6,0c3.8-0.6,3.3-9.3,0-9.8c-2.5-0.1-4-0.1-4.6,0C92.3,72.2,91,79,89.8,79.7z"/>
	<g>
		<path class="st1" d="M11.2,97.5c-0.8,2-1.7,0.8-2.7,0.8c-2.9,0-5.3-10.4-5.3-23.1s2.4-23.1,5.3-23.1c1.4,0,0.9,2.5,0,2.5
			c-2.2,0-2.6,9.4-2.6,20.9c0,11.5,1.8,20.9,4,20.9C10.4,96.4,10.8,98.3,11.2,97.5z M13.9,75.4c0-0.1,0-0.1,0-0.2c0-0.3,0-0.5,0-0.8
			c0,0,0,0,0-0.1c0,0,0,0,0,0.1C13.9,74.7,13.9,75.1,13.9,75.4z M13.7,70.3C13.7,70.3,13.7,70.2,13.7,70.3c0-0.6-0.1-1.1-0.1-1.6
			C13.7,69.2,13.7,69.7,13.7,70.3C13.7,70.2,13.7,70.3,13.7,70.3z"/>
		<rect x="34.9" y="68.5" class="st0" width="8.5" height="5.4"/>
		<path class="st1" d="M20.2,55.5c0.5,1.6,0.9,3.7,1.2,6.1l0,0c-0.1,0-0.2,0-0.3,0h-8.5c-0.3,0-0.6,0.1-0.8,0.3
			c-0.3-2-0.7-3.8-1.2-5.4H19C19.6,56.4,20.1,56,20.2,55.5z M18.9,52.7c-0.2-0.3-0.5-0.5-0.7-0.6c-1.4-0.2-2.8-0.3-4.1-0.4
			c-0.2,0-0.4,0-0.7,0c-1.8,0-3.5,0.1-5,0.4c0.3,0.4,0.7,0.9,0.9,1.4c0.2-0.5,0.6-0.8,1.1-0.8H18.9z M21.8,65.1
			c0.2,2.2,0.4,4.6,0.4,7.1l0,0c-0.1-0.1-0.3-0.1-0.5-0.1h-8.5c-0.3,0-0.5,0.1-0.7,0.2c0-2.4-0.1-4.8-0.3-7c0.1,0,0.2,0.1,0.4,0.1
			h8.5C21.3,65.3,21.6,65.2,21.8,65.1L21.8,65.1z M22.3,75.7c0,2.5-0.1,5-0.2,7.4l0,0c-0.2-0.3-0.6-0.5-1-0.5h-8.5
			c-0.2,0-0.3,0-0.5,0.1c0.2-2.3,0.3-4.7,0.4-7.1c0.2,0.2,0.5,0.2,0.7,0.2h8.5C21.9,75.8,22.1,75.7,22.3,75.7L22.3,75.7L22.3,75.7z
			 M21.9,86c-0.3,2.9-0.6,5.4-1.2,7.5l0,0c-0.1-0.5-0.6-0.9-1.1-0.9h-8.5c-0.2,0-0.3,0-0.5,0.1c0.5-2,0.9-4.3,1.2-6.8
			c0.2,0.2,0.5,0.3,0.8,0.3h8.5C21.4,86.3,21.6,86.2,21.9,86L21.9,86L21.9,86L21.9,86z M19.7,96.4c-0.5,1-1,1.7-1.6,2
			c-3.5,1.3-6.7,1.3-9.7,0c0.5-0.7,1-1.8,1.4-3.1c0,0.7,0.5,1.2,1.2,1.2h8.5C19.6,96.4,19.7,96.4,19.7,96.4L19.7,96.4L19.7,96.4
			L19.7,96.4L19.7,96.4z"/>
	</g>
	<path class="st1" d="M34.9,81.5h40.9c1.4,0,2.5-0.8,2.5-1.9l0,0c0-1-1.1-1.9-2.5-1.9H34.9c-1.4,0-2.5,0.8-2.5,1.9l0,0
		C32.4,80.6,33.5,81.5,34.9,81.5L34.9,81.5z M31.3,63.4l-12-8.4c3,12.8,4,26,0.9,39.7l11-10.3h57.3c4.9-4.9,4.3-14.5,0-20.9
		L31.3,63.4L31.3,63.4z M53.8,73.2h-5.9v-5.4h5.9V73.2z"/>
</g>
<g>
	<path d="M41.2,5c-3.6-2.5-7.5-2.5-11.5,0l0.6,5.4h10.2L41.2,5z"/>
	<path d="M56.2,5c-3.4-2.5-7-2.5-10.8,0l0.6,5.4h9.6L56.2,5z"/>
	<path class="st2" d="M86.8,8.5c1-1.3,2.2-2.1,3.4-2.1c3.8,0,6.8,6.9,6.8,15.4c0,8.5-3.1,15.4-6.8,15.4c-1.9,0-3.5-1.7-4.8-4.4
		c0.8,1.7,1.9,2.8,3,2.8c2.8,0,5.1-6.2,5.1-13.9c0-7.7-2.3-13.9-5.1-13.9C87.9,7.7,87.3,8,86.8,8.5z M83.4,21.8
		C83.4,21.8,83.4,21.8,83.4,21.8c0,1.4,0.1,2.6,0.2,3.8C83.5,24.4,83.4,23.1,83.4,21.8z"/>
	<path class="st2" d="M25.5,8.3c-2.6-0.4-5.2-0.6-8-0.5C15.3,7.9,13.1,8,10.7,8c-8.4,1.7-7.2,25.1,0,26.3c0.3,0,0.7,0,1,0.1
		c5,0.3,9.5,0.2,13.7-0.1C21.1,33.6,20.4,11.4,25.5,8.3z"/>
	<path d="M91.7,6.8c-7.3-1.2-15.3-1.4-23.8-0.6c-6.6,0.9-9.7,7.2-10,13.9c-0.3,7.8,3.4,16.1,10,16.9c0.6,0,1.2,0,1.8,0.1
		c14.6,0.3,21.9,0.1,22-0.5C83.4,29.1,88.4,8.7,91.7,6.8z"/>
	<path class="st2" d="M39.5,50.1c2.5-3-9.7-4.3-20.6-10.8C7.9,32.8,4.4,16.9,2,19.9c-2.5,3,2.2,17.3,13.2,23.9
		C26.1,50.3,37,53.1,39.5,50.1z M36.1,48.9c2.1-2.6-9.6-3.3-18.8-8.8C8.2,34.7,4.7,19.2,2.6,21.7s4,15.7,13.2,21.2
		C25,48.4,34,51.5,36.1,48.9z"/>
	<path d="M5.1,25.2c-2.2,0.8-3.7-1.9-3.8-3.5c-0.1-1.6,1.3-3.6,3.8-3.8C4.7,19,2.8,20,2.9,21.6C3,23.1,5.4,25,5.1,25.2z"/>
	<path class="st2" d="M66.6,7.8C58.9,7.9,50.9,8,42.5,8.1C36,8.2,29.3,8.3,22.4,8.3c-25,1.7-21.6,25.1,0,26.3c1,0,2.1,0,3.1,0.1
		c14.9,0.3,28.5,0.6,41.1,1.2C63.6,35.2,61.7,10.9,66.6,7.8z M49.8,18.9H32.5c-1.1,0-2,0.9-2,2v1.3c0,1.1,0.9,2,2,2h17.2
		c1.1,0,2-0.9,2-2v-1.3C51.8,19.8,50.9,18.9,49.8,18.9z"/>
</g>
</svg>
