<?xml version="1.0" encoding="utf-8"?>
<!-- Generator: Adobe Illustrator 23.0.1, SVG Export Plug-In . SVG Version: 6.00 Build 0)  -->
<svg version="1.1" id="Слой_1" xmlns="http://www.w3.org/2000/svg" xmlns:xlink="http://www.w3.org/1999/xlink" x="0px" y="0px"
	 viewBox="0 0 100 100" style="enable-background:new 0 0 100 100;" xml:space="preserve">
    <path class="st1" stroke="#fff" stroke-width="2.0369" stroke-miterlimit="10" d="M50.1,92.9c22.8,0,41.3-18.5,41.3-41.3S72.9,10.2,50.1,10.2S8.7,28.7,8.7,51.5S27.2,92.9,50.1,92.9z"/>
    <path class="st1" stroke="#fff" stroke-width="2.0369" stroke-miterlimit="10" d="M50,85.3c18.6,0,33.8-15.1,33.8-33.8c0-18.6-15.1-33.8-33.8-33.8c-18.6,0-33.8,15.1-33.8,33.8
			C16.3,70.2,31.4,85.3,50,85.3z"/>
    <path class="st1" stroke="#fff" stroke-width="2.0369" stroke-miterlimit="10" d="M50.1,76.6c13.8,0,25-11.2,25-25s-11.2-25-25-25c-13.8,0-25,11.2-25,25S36.2,76.6,50.1,76.6z"/>
    <path class="st2" stroke="#fff" stroke-width="2.0369" stroke-miterlimit="10" d="M51.2,100h-2.7c-0.5,0-0.9-0.4-0.9-0.9V0.9C47.6,0.4,48,0,48.5,0h2.7c0.5,0,0.9,0.4,0.9,0.9v98.2
			C52.1,99.6,51.7,100,51.2,100z"/>
    <path class="st2" stroke="#fff" stroke-width="2.0369" stroke-miterlimit="10" d="M0,52.9v-2.7c0-0.5,0.4-0.9,0.9-0.9h98.2c0.5,0,0.9,0.4,0.9,0.9v2.7c0,0.5-0.4,0.9-0.9,0.9H0.9
			C0.4,53.8,0,53.4,0,52.9z"/>
    <path class="st1" stroke="#fff" stroke-width="2.0369" stroke-miterlimit="10" d="M58.6,60.1c4.8-4.8,4.8-12.5,0-17.2s-12.5-4.8-17.2,0s-4.8,12.5,0,17.2S53.9,64.8,58.6,60.1z"/>
</svg>
